{
  "accessors": [
    {
      "bufferView": 2,
      "componentType": 5126,
      "count": 332,
      "max": [
        1.0364140272140503,
        1.2753310203552246,
        1.2688080072402954
      ],
      "min": [
        -1.0318100452423096,
        -0.9110720157623291,
        -0.6983749866485596
      ],
      "type": "VEC3"
    },
    {
      "bufferView": 2,
      "byteOffset": 3984,
      "componentType": 5126,
      "count": 332,
      "max": [
        1.0,
        0.9859544038772583,
        0.998273491859436
      ],
      "min": [
        -1.0,
        -0.9997689127922058,
        -0.9863910675048828
      ],
      "type": "VEC3"
    },
    {
      "bufferView": 1,
      "componentType": 5126,
      "count": 332,
      "max": [
        0.7128909826278687,
        0.5458980202674866
      ],
      "min": [
        0.010917999781668186,
        0.010010000318288803
      ],
      "type": "VEC2"
    },
    {
      "bufferView": 0,
      "componentType": 5125,
      "count": 1764,
      "type": "SCALAR"
    }
  ],
  "asset": {
    "extras": {
      "author": "Eric.Stirbescu (https://sketchfab.com/eric.stirbescu)",
      "license": "CC-BY-4.0 (http://creativecommons.org/licenses/by/4.0/)",
      "source": "https://sketchfab.com/3d-models/mobile-gummy-bear-runner-santa-hat-6fa120c7b9104801ab28b382154e4c44",
      "title": "Mobile - Gummy Bear Runner - Santa Hat"
    },
    "generator": "Sketchfab-15.0.0",
    "version": "2.0"
  },
  "bufferViews": [
    {
      "buffer": 0,
      "byteLength": 7056,
      "name": "floatBufferViews",
      "target": 34963
    },
    {
      "buffer": 0,
      "byteLength": 2656,
      "byteOffset": 7056,
      "byteStride": 8,
      "name": "floatBufferViews",
      "target": 34962
    },
    {
      "buffer": 0,
      "byteLength": 7968,
      "byteOffset": 9712,
      "byteStride": 12,
      "name": "floatBufferViews",
      "target": 34962
    }
  ],
  "buffers": [
    {
      "byteLength": 17680,
      "uri": "scene.bin"
    }
  ],
  "images": [
    {
      "uri": "textures/Default_OBJ_baseColor.png"
    }
  ],
  "materials": [
    {
      "doubleSided": true,
      "name": "Default_OBJ",
      "pbrMetallicRoughness": {
        "baseColorTexture": {
          "index": 0
        },
        "metallicFactor": 0.0,
        "roughnessFactor": 0.8063508326896291
      }
    }
  ],
  "meshes": [
    {
      "name": "Object_0",
      "primitives": [
        {
          "attributes": {
            "NORMAL": 1,
            "POSITION": 0,
            "TEXCOORD_0": 2
          },
          "indices": 3,
          "material": 0,
          "mode": 4
        }
      ]
    }
  ],
  "nodes": [
    {
      "children": [
        1
      ],
      "matrix": [
        1.0,
        0.0,
        0.0,
        0.0,
        0.0,
        2.220446049250313e-16,
        -1.0,
        0.0,
        0.0,
        1.0,
        2.220446049250313e-16,
        0.0,
        0.0,
        0.0,
        0.0,
        1.0
      ],
      "name": "Sketchfab_model"
    },
    {
      "children": [
        2
      ],
      "name": "Gorro_navidad.obj.cleaner.materialmerger.gles"
    },
    {
      "mesh": 0,
      "name": "Object_2"
    }
  ],
  "samplers": [
    {
      "magFilter": 9729,
      "minFilter": 9987,
      "wrapS": 10497,
      "wrapT": 10497
    }
  ],
  "scene": 0,
  "scenes": [
    {
      "name": "Sketchfab_Scene",
      "nodes": [
        0
      ]
    }
  ],
  "textures": [
    {
      "sampler": 0,
      "source": 0
    }
  ]
}
